<svg width="12" height="12" viewBox="0 0 12 12" xmlns="http://www.w3.org/2000/svg">
    <path
        d="M1.4043 1.40039C1.59956 1.20517 1.91608 1.20514 2.11133 1.40039L6.00195 5.29102L9.88867 1.4043C10.0839 1.20907 10.4005 1.20905 10.5957 1.4043C10.7909 1.59955 10.7909 1.91608 10.5957 2.11133L6.70898 5.99805L10.5967 9.88574C10.7918 10.081 10.7919 10.3975 10.5967 10.5928C10.4015 10.788 10.0849 10.7879 9.88965 10.5928L6.00195 6.70508L2.11035 10.5967C1.9151 10.7919 1.59857 10.7919 1.40332 10.5967C1.20807 10.4014 1.20809 10.0849 1.40332 9.88965L5.29492 5.99805L1.4043 2.10742C1.20903 1.91216 1.20903 1.59565 1.4043 1.40039Z" />
</svg>