<svg width="12" height="12" viewBox="0 0 12 12" xmlns="http://www.w3.org/2000/svg">
    <path
        d="M6 12C9.31371 12 12 9.31371 12 6C12 2.68629 9.31371 0 6 0C2.68629 0 0 2.68629 0 6C0 9.31371 2.68629 12 6 12Z" />
    <path
        d="M7.50293 3.79102C7.69812 3.59582 8.01468 3.59596 8.20996 3.79102C8.40508 3.98629 8.40518 4.30283 8.20996 4.49805L6.70605 6.00098L8.20996 7.50488C8.40519 7.70015 8.40521 8.01666 8.20996 8.21191C8.01471 8.40716 7.69819 8.40714 7.50293 8.21191L5.99902 6.70801L4.49609 8.21191C4.30088 8.40713 3.98434 8.40703 3.78906 8.21191C3.59401 8.01664 3.59387 7.70008 3.78906 7.50488L5.29199 6.00098L3.78906 4.49805C3.5938 4.30278 3.5938 3.98628 3.78906 3.79102C3.98432 3.59575 4.30083 3.59575 4.49609 3.79102L5.99902 5.29395L7.50293 3.79102Z"
        fill="currentColor" />
</svg>