<svg width="12" height="12" viewBox="0 0 12 12" xmlns="http://www.w3.org/2000/svg">
    <path
        d="M7.28613 -0.0703125C7.64587 -0.0702387 7.99069 0.0728315 8.24512 0.327148C8.49963 0.581662 8.64258 0.927172 8.64258 1.28711V3.00098C8.64258 3.27712 8.41872 3.50098 8.14258 3.50098C7.86663 3.50075 7.64258 3.27698 7.64258 3.00098V1.28711C7.64258 1.19239 7.60506 1.10116 7.53809 1.03418C7.47119 0.967399 7.38065 0.929761 7.28613 0.929688H1.28613C1.19141 0.929688 1.10018 0.967202 1.0332 1.03418C0.966226 1.10116 0.928711 1.19239 0.928711 1.28711V10.7158C0.928822 10.8103 0.966412 10.9009 1.0332 10.9678C1.10018 11.0347 1.19141 11.0723 1.28613 11.0723H7.28613C7.38072 11.0722 7.47118 11.0346 7.53809 10.9678C7.60496 10.9009 7.64247 10.8104 7.64258 10.7158V9.00098C7.64265 8.72504 7.86667 8.5012 8.14258 8.50098C8.41867 8.50098 8.6425 8.7249 8.64258 9.00098V10.7158C8.64247 11.0756 8.49953 11.4204 8.24512 11.6748C7.99068 11.9292 7.64594 12.0722 7.28613 12.0723H1.28613C0.926196 12.0723 0.580685 11.9293 0.326172 11.6748C0.0718443 11.4204 -0.0711783 11.0755 -0.0712891 10.7158V1.28711C-0.0712891 0.927173 0.0716583 0.581662 0.326172 0.327148C0.580685 0.0726348 0.926196 -0.0703125 1.28613 -0.0703125H7.28613ZM9.50391 3.93164C9.69917 3.73638 10.0157 3.73638 10.2109 3.93164L11.9248 5.64551C11.9652 5.6859 11.9949 5.73263 12.0186 5.78125C12.0229 5.79014 12.0284 5.79845 12.0322 5.80762C12.0576 5.86886 12.0713 5.93376 12.0713 5.99902V6C12.0713 6.14056 12.0123 6.26658 11.9189 6.35742L10.2109 8.06738C10.0157 8.26254 9.69915 8.26251 9.50391 8.06738C9.30867 7.87214 9.30871 7.55562 9.50391 7.36035L10.3633 6.5H5.57129C5.29515 6.5 5.07129 6.27614 5.07129 6C5.07129 5.72386 5.29515 5.5 5.57129 5.5H10.3652L9.50391 4.63867C9.30864 4.44341 9.30864 4.1269 9.50391 3.93164Z" />
</svg>