<svg width="13" height="12" viewBox="0 0 13 12" xmlns="http://www.w3.org/2000/svg">
    <path
        d="M6.06055 2.07031C7.38652 2.07031 8.59149 2.59219 9.56055 3.21387C10.2891 3.6813 10.9039 4.21747 11.3623 4.66797L11.7676 5.08398L11.7725 5.08984C11.9973 5.33917 12.1221 5.66326 12.1221 5.99902C12.122 6.33481 11.9974 6.65889 11.7725 6.9082L11.7676 6.91309C11.3016 7.41456 10.532 8.16088 9.56055 8.78418C8.59149 9.40586 7.38652 9.92773 6.06055 9.92773C4.73469 9.92766 3.53051 9.40581 2.56152 8.78418C1.58992 8.16085 0.82051 7.41461 0.354492 6.91309L0.349609 6.9082C0.124574 6.65886 3.44796e-05 6.3349 0 5.99902C0 5.66317 0.12463 5.3392 0.349609 5.08984L0.354492 5.08398C0.8205 4.58248 1.59005 3.83714 2.56152 3.21387C3.53051 2.59223 4.73469 2.07039 6.06055 2.07031ZM6.06055 3.07031C4.99528 3.07039 3.97952 3.49148 3.10156 4.05469C2.22929 4.61428 1.52517 5.29191 1.09082 5.75879L1.0918 5.75977C1.03268 5.82536 1 5.91071 1 5.99902C1.00003 6.08573 1.03174 6.16929 1.08887 6.23438C1.52294 6.70133 2.2272 7.38143 3.10156 7.94238C3.97957 8.50565 4.99519 8.92766 6.06055 8.92773C7.126 8.92773 8.14242 8.5057 9.02051 7.94238C9.89581 7.38078 10.6003 6.69938 11.0342 6.23242C11.0903 6.1676 11.122 6.08494 11.1221 5.99902C11.1221 5.91062 11.0885 5.82539 11.0293 5.75977V5.75879C10.5949 5.29195 9.89226 4.61396 9.02051 4.05469C8.14242 3.49137 7.126 3.07031 6.06055 3.07031ZM6.06055 3.78516C7.28332 3.78516 8.27516 4.7763 8.27539 5.99902C8.27539 7.22194 7.28346 8.21387 6.06055 8.21387C4.83782 8.21364 3.84668 7.2218 3.84668 5.99902C3.84691 4.77644 4.83796 3.78538 6.06055 3.78516ZM6.06055 4.78516C5.39025 4.78538 4.84691 5.32872 4.84668 5.99902C4.84668 6.66952 5.39011 7.21364 6.06055 7.21387C6.73118 7.21387 7.27539 6.66965 7.27539 5.99902C7.27516 5.32858 6.73104 4.78516 6.06055 4.78516Z" />
</svg>