<svg width="13" height="12" viewBox="0 0 13 12" xmlns="http://www.w3.org/2000/svg">
    <path
        d="M10.4219 0.931641C10.6171 0.736448 10.9337 0.736402 11.1289 0.931641C11.324 1.12689 11.3241 1.44345 11.1289 1.63867L1.7002 11.0674C1.50498 11.2625 1.18841 11.2625 0.993164 11.0674C0.797925 10.8721 0.797972 10.5556 0.993164 10.3604L2.57324 8.7793C1.75539 8.25572 1.0074 7.6288 0.351562 6.91016L0.349609 6.9082C0.124574 6.65886 3.44796e-05 6.3349 0 5.99902C0 5.66317 0.12463 5.3392 0.349609 5.08984L0.354492 5.08398C0.8205 4.58248 1.59005 3.83714 2.56152 3.21387C3.53051 2.59223 4.73469 2.07039 6.06055 2.07031H6.07129L6.45508 2.09082C7.2188 2.15488 7.9639 2.36223 8.65137 2.70117L10.4219 0.931641ZM10.2227 4.2959C10.4068 4.09015 10.7229 4.07177 10.9287 4.25586C11.0992 4.4084 11.2558 4.55857 11.3965 4.69922L11.7676 5.08691L11.7715 5.09082C11.9965 5.3401 12.121 5.66422 12.1211 6C12.1211 6.33587 11.9965 6.65982 11.7715 6.90918L11.7666 6.91504C11.3006 7.41658 10.5311 8.16287 9.55957 8.78613C8.59058 9.40771 7.38635 9.92871 6.06055 9.92871H5.71777C5.44163 9.92871 5.21777 9.70485 5.21777 9.42871C5.21792 9.15269 5.44172 8.92871 5.71777 8.92871H6.06055C7.12585 8.92871 8.14153 8.50754 9.01953 7.94434C9.89146 7.38496 10.5939 6.70611 11.0283 6.23926C11.0875 6.17364 11.1211 6.08838 11.1211 6C11.121 5.91372 11.0899 5.83053 11.0332 5.76562L10.6895 5.40723C10.5602 5.27792 10.4169 5.14079 10.2617 5.00195C10.056 4.81783 10.0386 4.50168 10.2227 4.2959ZM6.05371 3.07031C4.99093 3.07219 3.97765 3.49269 3.10156 4.05469C2.22929 4.61428 1.52517 5.29191 1.09082 5.75879L1.0918 5.75977C1.03268 5.82536 1 5.91071 1 5.99902C1.00003 6.08735 1.03263 6.1727 1.0918 6.23828C1.73776 6.94572 2.48101 7.55656 3.29785 8.05469L4.18555 7.16602C3.96857 6.81943 3.84851 6.41744 3.84668 6.00195V5.99902C3.84679 5.41191 4.07996 4.84875 4.49512 4.43359C4.91028 4.01843 5.47343 3.78527 6.06055 3.78516H6.06348L6.28125 3.79688C6.61893 3.83174 6.94191 3.94521 7.22754 4.12402L7.89648 3.45605C7.31308 3.21547 6.68827 3.08399 6.05371 3.07031ZM7.12109 6.60254C7.26072 6.36477 7.56659 6.28458 7.80469 6.42383C8.04281 6.56328 8.12262 6.87015 7.9834 7.1084C7.78638 7.44497 7.50331 7.72364 7.16406 7.91602C6.92391 8.05194 6.61954 7.9676 6.4834 7.72754C6.34722 7.48731 6.43165 7.18208 6.67188 7.0459C6.85773 6.94036 7.01317 6.78703 7.12109 6.60254ZM6.05859 4.78516C5.7374 4.78578 5.42931 4.91346 5.20215 5.14062C4.97452 5.36825 4.84679 5.67713 4.84668 5.99902C4.8475 6.14613 4.87622 6.28992 4.92773 6.4248L6.48633 4.86523C6.35092 4.81357 6.20621 4.78578 6.05859 4.78516Z" />
</svg>