<svg width="13" height="13" viewBox="0 0 13 13" xmlns="http://www.w3.org/2000/svg">
    <path
        d="M8.64258 0C8.91872 0 9.14258 0.223858 9.14258 0.5V0.855469H11.6426C11.9187 0.855469 12.1426 1.07933 12.1426 1.35547V2.21289C12.1425 3.02738 11.8191 3.80883 11.2432 4.38477C10.6736 4.95424 9.90327 5.27601 9.09863 5.2832C8.99517 5.91329 8.70043 6.50074 8.24316 6.95801C7.78657 7.41449 7.20022 7.7086 6.57129 7.8125V11.1445H8.21484C8.49079 11.1448 8.71484 11.3685 8.71484 11.6445C8.71484 11.9205 8.49079 12.1443 8.21484 12.1445H3.92871C3.65257 12.1445 3.42871 11.9207 3.42871 11.6445C3.42871 11.3684 3.65257 11.1445 3.92871 11.1445H5.57129V7.8125C4.94235 7.7086 4.356 7.41453 3.89941 6.95801C3.44211 6.5007 3.1464 5.91335 3.04297 5.2832C2.23869 5.27576 1.4687 4.95401 0.899414 4.38477C0.323475 3.80883 7.38817e-05 3.02738 0 2.21289V1.35547C0 1.07933 0.223858 0.855469 0.5 0.855469H3V0.5C3 0.223858 3.22386 0 3.5 0H8.64258ZM4 4.78613C4.00011 5.33519 4.21829 5.86166 4.60645 6.25C4.99166 6.63521 5.51323 6.85281 6.05762 6.85645C6.06217 6.85632 6.06671 6.85547 6.07129 6.85547C6.07554 6.85547 6.07976 6.85634 6.08398 6.85645C6.62878 6.8531 7.15066 6.63547 7.53613 6.25C7.92437 5.86165 8.14247 5.33526 8.14258 4.78613V1H4V4.78613ZM1 2.21289C1.00007 2.76217 1.21804 3.28933 1.60645 3.67773C1.97802 4.04927 2.47662 4.26221 3 4.28027V1.85547H1V2.21289ZM9.14258 4.28027C9.66596 4.26221 10.1646 4.04927 10.5361 3.67773C10.9245 3.28933 11.1425 2.76217 11.1426 2.21289V1.85547H9.14258V4.28027Z" />
</svg>