<svg width="13" height="13" viewBox="0 0 13 13" xmlns="http://www.w3.org/2000/svg">
    <path
        d="M3.92773 6C4.67726 6 5.28516 6.60789 5.28516 7.35742V10.7861C5.28493 11.5355 4.67712 12.1426 3.92773 12.1426H3.07129C2.3219 12.1426 1.71409 11.5355 1.71387 10.7861V7.35742C1.71387 6.60789 2.32176 6 3.07129 6H3.92773ZM9.07129 6C9.82082 6 10.4287 6.60789 10.4287 7.35742V10.7861C10.4285 11.5355 9.82068 12.1426 9.07129 12.1426H8.21484C7.46545 12.1426 6.85765 11.5355 6.85742 10.7861V7.35742C6.85742 6.60789 7.46531 6 8.21484 6H9.07129ZM3.07129 7C2.87404 7 2.71387 7.16018 2.71387 7.35742V10.7861C2.71409 10.9832 2.87418 11.1426 3.07129 11.1426H3.92773C4.12484 11.1426 4.28493 10.9832 4.28516 10.7861V7.35742C4.28516 7.16018 4.12498 7 3.92773 7H3.07129ZM8.21484 7C8.0176 7 7.85742 7.16018 7.85742 7.35742V10.7861C7.85765 10.9832 8.01774 11.1426 8.21484 11.1426H9.07129C9.26839 11.1426 9.42848 10.9832 9.42871 10.7861V7.35742C9.42871 7.16018 9.26853 7 9.07129 7H8.21484ZM6.07129 0C7.68147 0 9.22566 0.639794 10.3643 1.77832C11.5028 2.9169 12.1425 4.4611 12.1426 6.07129V8.21387C12.1426 8.49001 11.9187 8.71387 11.6426 8.71387C11.3666 8.71372 11.1426 8.48992 11.1426 8.21387V6.07129C11.1425 4.72631 10.6083 3.4364 9.65723 2.48535C8.70616 1.53436 7.41625 1 6.07129 1C4.72631 1.00004 3.4364 1.53431 2.48535 2.48535C1.53431 3.4364 1.00004 4.72631 1 6.07129V8.21387C1 8.49001 0.776142 8.71387 0.5 8.71387C0.223858 8.71387 0 8.49001 0 8.21387V6.07129C3.69996e-05 4.4611 0.63974 2.9169 1.77832 1.77832C2.9169 0.63974 4.4611 3.69994e-05 6.07129 0Z" />
</svg>