<svg width="13" height="12" viewBox="0 0 13 12" xmlns="http://www.w3.org/2000/svg">
    <path
        d="M11.6426 9.78516C11.9187 9.78516 12.1426 10.009 12.1426 10.2852C12.1426 10.5613 11.9187 10.7852 11.6426 10.7852H0.5C0.223858 10.7852 0 10.5613 0 10.2852C0 10.009 0.223858 9.78516 0.5 9.78516H11.6426ZM11.6426 5.5C11.9187 5.5 12.1426 5.72386 12.1426 6C12.1426 6.27614 11.9187 6.5 11.6426 6.5H0.5C0.223858 6.5 0 6.27614 0 6C0 5.72386 0.223858 5.5 0.5 5.5H11.6426ZM11.6426 1.21484C11.9187 1.21484 12.1426 1.4387 12.1426 1.71484C12.1426 1.99099 11.9187 2.21484 11.6426 2.21484H0.5C0.223858 2.21484 0 1.99099 0 1.71484C0 1.4387 0.223858 1.21484 0.5 1.21484H11.6426Z" />
</svg>