<svg width="12" height="13" viewBox="0 0 12 13" xmlns="http://www.w3.org/2000/svg">
    <path
        d="M6 0C6.92826 0 7.81823 0.369013 8.47461 1.02539C9.13099 1.68177 9.5 2.57174 9.5 3.5V4.28809C10.2159 4.32569 10.7852 4.91731 10.7852 5.64258V10.7852C10.7852 11.5347 10.1773 12.1426 9.42773 12.1426H2.57129C1.82176 12.1426 1.21387 11.5347 1.21387 10.7852V5.64258C1.21387 4.91698 1.78362 4.3252 2.5 4.28809V3.5C2.5 2.57174 2.86901 1.68177 3.52539 1.02539C4.18177 0.369013 5.07174 0 6 0ZM2.57129 5.28516C2.37404 5.28516 2.21387 5.44533 2.21387 5.64258V10.7852C2.21387 10.9824 2.37404 11.1426 2.57129 11.1426H9.42773C9.62498 11.1426 9.78516 10.9824 9.78516 10.7852V5.64258C9.78516 5.44533 9.62498 5.28516 9.42773 5.28516H9.00977C9.00651 5.28522 9.00327 5.28613 9 5.28613C8.99673 5.28613 8.99349 5.28522 8.99023 5.28516H3.00977C3.00651 5.28522 3.00327 5.28613 3 5.28613C2.99673 5.28613 2.99349 5.28522 2.99023 5.28516H2.57129ZM6.09473 7.29004C6.563 7.33756 6.92871 7.73306 6.92871 8.21387C6.92864 8.72659 6.51273 9.1425 6 9.14258C5.51919 9.14258 5.12369 8.77686 5.07617 8.30859L5.07129 8.21387L5.07617 8.11914C5.12357 7.65074 5.5191 7.28516 6 7.28516L6.09473 7.29004ZM6 8.14258C5.96055 8.14258 5.92871 8.17442 5.92871 8.21387L5.93359 8.24121C5.94433 8.26708 5.97025 8.28516 6 8.28516C6.0296 8.2851 6.05465 8.26691 6.06543 8.24121L6.07129 8.21387L6.06543 8.18555C6.05809 8.1685 6.0445 8.15458 6.02734 8.14746L6 8.14258ZM6 1C5.33696 1 4.70126 1.26358 4.23242 1.73242C3.76358 2.20126 3.5 2.83696 3.5 3.5V4.28516H8.5V3.5C8.5 2.83696 8.23642 2.20126 7.76758 1.73242C7.29874 1.26358 6.66304 1 6 1Z" />
</svg>