<svg xmlns="http://www.w3.org/2000/svg" width="13" height="13" viewBox="0 0 13 13">
    <path
        d="M6.07129 0C9.4244 0 12.1425 2.7182 12.1426 6.07129C12.1426 7.88932 11.3422 9.51917 10.0762 10.6318C10.0723 10.6355 10.0684 10.639 10.0645 10.6426C8.99692 11.5759 7.6007 12.1426 6.07129 12.1426C2.7182 12.1425 0 9.4244 0 6.07129C7.55064e-05 2.71824 2.71824 7.55044e-05 6.07129 0ZM6.07227 8.71484C5.42292 8.71484 4.78393 8.8822 4.21777 9.2002C3.77968 9.44634 3.3965 9.7771 3.08887 10.1709C3.92607 10.781 4.95607 11.1425 6.07129 11.1426C7.18654 11.1426 8.21651 10.781 9.05371 10.1709C8.74616 9.77724 8.36382 9.44629 7.92578 9.2002C7.35975 8.88228 6.72147 8.71491 6.07227 8.71484ZM6.07129 1C3.27053 1.00008 1.00008 3.27053 1 6.07129C1 7.39593 1.50822 8.60159 2.33984 9.50488C2.7219 9.02889 3.19308 8.6289 3.72852 8.32812C4.44418 7.92618 5.25144 7.71484 6.07227 7.71484C6.89309 7.71491 7.70037 7.92612 8.41602 8.32812C8.95088 8.62862 9.4209 9.02855 9.80273 9.50391C10.6341 8.60067 11.1426 7.39569 11.1426 6.07129C11.1425 3.27048 8.87211 1 6.07129 1ZM6.07129 2.14453C7.53081 2.14453 8.71469 3.32763 8.71484 4.78711C8.71484 6.24672 7.5309 7.43066 6.07129 7.43066C4.61181 7.43051 3.42871 6.24663 3.42871 4.78711C3.42886 3.32772 4.6119 2.14468 6.07129 2.14453ZM6.07129 3.14453C5.16419 3.14468 4.42886 3.88001 4.42871 4.78711C4.42871 5.69434 5.16409 6.43051 6.07129 6.43066C6.97861 6.43066 7.71484 5.69443 7.71484 4.78711C7.71469 3.87991 6.97852 3.14453 6.07129 3.14453Z" />
</svg>