<svg width="12" height="12" viewBox="0 0 12 12" xmlns="http://www.w3.org/2000/svg">
    <path
        d="M4 4.50023C4 4.10467 4.11715 3.7178 4.33691 3.3889C4.55662 3.06011 4.86906 2.80395 5.23438 2.65257C5.59983 2.5012 6.00266 2.46114 6.39062 2.53832C6.77845 2.61553 7.13444 2.80655 7.41406 3.08617C7.69368 3.36578 7.8847 3.72178 7.96191 4.1096C8.03908 4.49757 7.99903 4.9004 7.84766 5.26585C7.69628 5.63117 7.44012 5.94361 7.11133 6.16332C6.92357 6.28877 6.71632 6.37889 6.5 6.4348V7.00023C6.5 7.27637 6.27614 7.50023 6 7.50023C5.72386 7.50023 5.5 7.27637 5.5 7.00023V6.00023C5.5 5.72409 5.72386 5.50023 6 5.50023C6.19778 5.50023 6.39121 5.44117 6.55566 5.33128C6.71995 5.22144 6.84817 5.06562 6.92383 4.88304C6.99952 4.70032 7.01905 4.4989 6.98047 4.30492C6.94185 4.11104 6.84682 3.93298 6.70703 3.7932C6.56724 3.65341 6.38919 3.55838 6.19531 3.51976C6.00133 3.48118 5.79991 3.50071 5.61719 3.5764C5.43461 3.65206 5.27879 3.78028 5.16895 3.94457C5.05906 4.10901 5 4.30245 5 4.50023C5 4.77637 4.77614 5.00023 4.5 5.00023C4.22386 5.00023 4 4.77637 4 4.50023Z" />
    <path
        d="M6.75 9.25C6.75 9.66421 6.41421 10 6 10C5.72386 10 5.5 9.77614 5.5 9.5C5.5 9.40849 5.52641 9.32378 5.56934 9.25C5.52641 9.17622 5.5 9.09151 5.5 9C5.5 8.72386 5.72386 8.5 6 8.5C6.41421 8.5 6.75 8.83579 6.75 9.25Z" />
</svg>