<svg width="12" height="12" viewBox="0 0 12 12" xmlns="http://www.w3.org/2000/svg">
    <path
        d="M5.53826 0.608766C5.70906 0.19812 6.29079 0.19812 6.46159 0.608766L7.73417 3.66842C7.80617 3.84154 7.96897 3.95982 8.15587 3.9748L11.459 4.23962C11.9023 4.27516 12.0821 4.82841 11.7443 5.11775L9.22769 7.27353C9.0853 7.3955 9.02311 7.58689 9.06661 7.76927L9.83549 10.9926C9.93868 11.4252 9.46806 11.7671 9.08851 11.5353L6.26055 9.80799C6.10054 9.71026 5.89931 9.71026 5.7393 9.80799L2.91134 11.5353C2.53179 11.7671 2.06116 11.4252 2.16436 10.9926L2.93324 7.76927C2.97674 7.58689 2.91455 7.3955 2.77216 7.27353L0.255508 5.11775C-0.0822608 4.82841 0.0975018 4.27516 0.540829 4.23962L3.84398 3.9748C4.03088 3.95982 4.19368 3.84154 4.26568 3.66842L5.53826 0.608766Z" />
</svg>