<svg width="87" height="88" viewBox="0 0 87 88" fill="none" xmlns="http://www.w3.org/2000/svg">
<path d="M33.6437 9.20601C34.4326 8.97989 35.2707 8.97782 36.06 9.20397C36.8369 9.4266 37.5356 9.86297 38.0755 10.4649L38.0764 10.4646L50.6612 24.0219L50.7043 24.0695C50.8297 24.2168 50.9956 24.3324 51.1884 24.401C51.3816 24.4697 51.594 24.4884 51.8035 24.4522C51.8212 24.4492 51.8392 24.4464 51.857 24.444L70.3358 21.9259L70.3349 21.9261C71.1328 21.8072 71.9496 21.9098 72.6926 22.2264C73.4444 22.5468 74.0912 23.0742 74.5519 23.7505C75.0125 24.4269 75.266 25.2218 75.2826 26.0401C75.2988 26.8433 75.0841 27.6317 74.6713 28.3193L74.6725 28.32L65.4408 44.3905C65.4335 44.4032 65.4259 44.4159 65.4182 44.4284C65.3081 44.6074 65.2474 44.8064 65.2375 45.0065C65.2301 45.1564 65.251 45.305 65.2992 45.4449L65.3568 45.5818L65.3596 45.5881L73.4452 62.1474L73.4442 62.1477C73.803 62.881 73.9437 63.7001 73.8507 64.511C73.7692 65.2208 73.5126 65.8969 73.1082 66.4814L72.9256 66.7268C72.416 67.3635 71.7386 67.8458 70.9721 68.1231C70.2064 68.4 69.3781 68.4624 68.5798 68.3011L50.2725 64.636C50.0337 64.5973 49.7868 64.6117 49.5505 64.6794C49.3137 64.7473 49.0955 64.866 48.9132 65.0257L35.3312 77.836L35.3299 77.8353C34.7386 78.3948 34.0036 78.781 33.2078 78.9518C32.4109 79.1228 31.5808 79.0728 30.8113 78.8029C30.0413 78.5329 29.3615 78.0527 28.8525 77.414C28.3436 76.7751 28.0283 76.0053 27.9443 75.1926L25.9691 56.6729L25.968 56.662C25.9483 56.4646 25.8785 56.2751 25.7643 56.1109C25.6499 55.9467 25.493 55.8107 25.305 55.7174C25.2979 55.7138 25.2906 55.7099 25.2835 55.7063L8.85576 47.216L8.8551 47.2172C8.11184 46.8407 7.49284 46.2562 7.07867 45.5322C6.66451 44.8081 6.47545 43.979 6.53285 43.1469C6.59029 42.315 6.8914 41.5194 7.39467 40.8558C7.87701 40.2198 8.52633 39.7314 9.2666 39.4372L26.2719 31.7804L26.3216 31.759C26.5185 31.6787 26.6887 31.5503 26.8161 31.3897C26.9433 31.2293 27.0227 31.0433 27.051 30.852L27.0624 30.7888L30.5506 12.6226C30.6894 11.8259 31.0516 11.0856 31.5926 10.485C32.1422 9.87484 32.8547 9.43226 33.6437 9.20601Z" fill="#FFCC00" stroke="#E6B800" stroke-width="3" stroke-linecap="round" stroke-linejoin="round"/>
</svg>
