<svg width="87" height="88" viewBox="0 0 87 88" fill="none" xmlns="http://www.w3.org/2000/svg">
<path d="M20.3126 68.1562C20.4079 67.6122 20.9272 67.2477 21.4725 67.3428C22.0176 67.4379 22.382 67.9561 22.2869 68.5L21.8856 70.7939L21.8846 70.7979C21.8698 70.8809 21.861 70.9644 21.8582 71.0479C21.8552 71.1372 21.8389 71.223 21.8141 71.3047C21.8563 71.3793 21.8905 71.46 21.913 71.5469C21.9339 71.628 21.9606 71.7087 21.9932 71.7871C22.026 71.8659 22.0642 71.9423 22.1078 72.0156C22.1545 72.0942 22.1883 72.1767 22.2115 72.2607C22.2893 72.3018 22.3636 72.353 22.4308 72.416C22.4934 72.4747 22.5603 72.5297 22.6314 72.5801C22.7034 72.6309 22.7793 72.6773 22.8576 72.7178C22.9411 72.761 23.0153 72.8149 23.0807 72.876C23.171 72.8694 23.2637 72.8744 23.3568 72.8936C23.4434 72.9114 23.5319 72.9236 23.6211 72.9297C23.71 72.9357 23.799 72.9357 23.8873 72.9297C23.982 72.9232 24.0749 72.9306 24.1633 72.9492C24.2371 72.8969 24.3195 72.854 24.409 72.8223C24.4923 72.7927 24.5732 72.7566 24.6518 72.7158L24.6547 72.7148L26.7357 71.6426C27.2275 71.3891 27.8324 71.5808 28.0865 72.0713C28.3406 72.562 28.1477 73.1654 27.6558 73.4189L25.5758 74.4902C25.4152 74.5735 25.2499 74.6459 25.0805 74.7061C24.8995 74.7702 24.7123 74.7783 24.5373 74.7412C24.3914 74.8451 24.2162 74.9117 24.0243 74.9248C23.8454 74.937 23.6652 74.938 23.485 74.9258C23.3048 74.9136 23.1261 74.8888 22.9505 74.8525C22.7625 74.8137 22.5983 74.7239 22.468 74.6016C22.2897 74.6145 22.1059 74.5812 21.9355 74.4932C21.7755 74.4105 21.6204 74.3165 21.4725 74.2119C21.3259 74.1082 21.1873 73.9949 21.0575 73.873C20.9179 73.742 20.8245 73.5801 20.7775 73.4082C20.6199 73.3251 20.4817 73.2003 20.384 73.0361C20.2923 72.8818 20.2117 72.7205 20.1422 72.5537C20.0732 72.3878 20.0164 72.2176 19.9719 72.0449C19.9244 71.8603 19.9316 71.6747 19.9837 71.5049C19.8962 71.3504 19.8481 71.1708 19.8545 70.9805C19.8604 70.8033 19.879 70.6261 19.9103 70.4502L20.3126 68.1562ZM64.8049 67.3691C65.35 67.273 65.8704 67.6359 65.9668 68.1797L66.3681 70.4473L66.4063 70.7129C66.4157 70.802 66.4219 70.8912 66.4249 70.9805C66.4313 71.171 66.3823 71.3503 66.2947 71.5049C66.3469 71.6748 66.355 71.8602 66.3074 72.0449C66.263 72.2176 66.2062 72.3878 66.1371 72.5537C66.0677 72.7205 65.9871 72.8818 65.8954 73.0361C65.7976 73.2006 65.6588 73.3251 65.5009 73.4082C65.4539 73.5799 65.3624 73.7421 65.2229 73.873C65.0929 73.995 64.9536 74.1081 64.8069 74.2119C64.6589 74.3165 64.5038 74.4105 64.3439 74.4932C64.1732 74.5813 63.989 74.6147 63.8104 74.6016C63.6802 74.7237 63.5167 74.8138 63.3288 74.8525C63.1533 74.8888 62.9746 74.9136 62.7944 74.9258C62.6142 74.938 62.434 74.937 62.255 74.9248C62.0629 74.9117 61.8871 74.8453 61.7411 74.7412C61.5664 74.7781 61.3795 74.7701 61.1989 74.7061C61.0294 74.6459 60.8633 74.5745 60.7026 74.4912V74.4902L58.6235 73.4189C58.1317 73.1654 57.9387 72.562 58.1928 72.0713C58.447 71.5808 59.0519 71.3891 59.5436 71.6426L61.6256 72.7148L61.6276 72.7158C61.7062 72.7566 61.787 72.7927 61.8704 72.8223C61.9596 72.8539 62.0415 72.8971 62.1151 72.9492C62.2038 72.9305 62.2971 72.9232 62.3921 72.9297C62.4804 72.9357 62.5693 72.9357 62.6583 72.9297C62.7475 72.9236 62.836 72.9114 62.9226 72.8936C63.0153 72.8744 63.1077 72.8696 63.1977 72.876C63.2633 72.8147 63.3381 72.7611 63.4218 72.7178C63.5001 72.6773 63.576 72.6309 63.6479 72.5801C63.7191 72.5297 63.786 72.4747 63.8486 72.416C63.9156 72.3532 63.9894 72.3017 64.0669 72.2607C64.0901 72.1767 64.1248 72.0943 64.1716 72.0156C64.2152 71.9423 64.2534 71.8659 64.2861 71.7871C64.3188 71.7087 64.3455 71.628 64.3664 71.5469C64.3888 71.4602 64.4222 71.3792 64.4643 71.3047C64.4395 71.2231 64.4242 71.1371 64.4212 71.0479C64.4184 70.9644 64.4096 70.8809 64.3948 70.7979V70.7959L63.9925 68.5283C63.8961 67.9846 64.2599 67.4654 64.8049 67.3691ZM35.0637 67.3496C35.5555 67.0962 36.1605 67.2887 36.4145 67.7793C36.6685 68.2699 36.4756 68.8735 35.9839 69.127L31.8199 71.2725C31.3281 71.5259 30.7232 71.3343 30.469 70.8438C30.215 70.3531 30.4081 69.7496 30.8997 69.4961L35.0637 67.3496ZM49.8648 67.7793C50.1189 67.2887 50.7239 67.0963 51.2156 67.3496L55.3796 69.4961C55.8714 69.7496 56.0644 70.3531 55.8103 70.8438C55.5562 71.3343 54.9513 71.5259 54.4595 71.2725L50.2955 69.127C49.8038 68.8735 49.6109 68.2699 49.8648 67.7793ZM43.1402 63.709C43.2957 63.709 43.4513 63.7172 43.6051 63.7344C43.7681 63.7526 43.9176 63.8091 44.0456 63.8936C44.1978 63.8725 44.3574 63.8856 44.5125 63.9395C44.5857 63.9649 44.658 63.9929 44.7298 64.0225L44.9442 64.1172L44.9706 64.1309L47.0516 65.2041C47.5434 65.4576 47.7363 66.0601 47.4823 66.5508C47.2282 67.0415 46.6233 67.234 46.1315 66.9805L44.076 65.9209L43.8528 65.8291C43.7723 65.8011 43.6986 65.7625 43.6306 65.7178C43.5498 65.7289 43.4667 65.7311 43.382 65.7217C43.3019 65.7128 43.2211 65.709 43.1402 65.709C43.0591 65.709 42.9776 65.7127 42.8974 65.7217C42.8124 65.7312 42.7289 65.729 42.6478 65.7178C42.58 65.7623 42.5068 65.8012 42.4266 65.8291C42.3506 65.8555 42.276 65.8862 42.2034 65.9209L40.1479 66.9805C39.656 67.234 39.0511 67.0415 38.797 66.5508C38.5431 66.0602 38.736 65.4576 39.2277 65.2041L41.3097 64.1309L41.3362 64.1172C41.4766 64.0499 41.6204 63.9903 41.7669 63.9395C41.9216 63.8857 42.0809 63.8727 42.2328 63.8936C42.3611 63.8087 42.5118 63.7526 42.6752 63.7344C42.8291 63.7172 42.9846 63.709 43.1402 63.709ZM63.1977 58.2959C63.7427 58.1998 64.263 58.5628 64.3595 59.1064L65.1632 63.6436C65.2594 64.1872 64.8956 64.7054 64.3507 64.8018C63.8056 64.8979 63.2852 64.5351 63.1889 63.9912L62.3852 59.4551C62.2889 58.9112 62.6525 58.392 63.1977 58.2959ZM21.9198 58.9805C22.0151 58.4365 22.5345 58.072 23.0798 58.167C23.6249 58.2621 23.9902 58.7803 23.8951 59.3242L23.0905 63.9121C22.9952 64.4561 22.4759 64.8207 21.9306 64.7256C21.3855 64.6304 21.021 64.1122 21.1162 63.5684L21.9198 58.9805ZM63.9788 47.6777C64.3762 47.2934 65.0108 47.3038 65.3961 47.7002C65.7813 48.0967 65.7719 48.7298 65.3746 49.1143L63.7076 50.7266C63.7005 50.7334 63.6934 50.7404 63.6861 50.7471C63.6321 50.7963 63.5812 50.8486 63.5344 50.9033C63.4852 50.9608 63.4301 51.0102 63.3719 51.0537C63.355 51.1245 63.3309 51.1946 63.2975 51.2627C63.266 51.3269 63.2384 51.3933 63.2153 51.4609C63.1923 51.5282 63.1736 51.597 63.1595 51.666C63.1446 51.7386 63.1209 51.8071 63.0919 51.8721C63.1111 51.9409 63.1242 52.0126 63.1282 52.0869L63.1526 52.2979L63.1536 52.3018L63.5549 54.5703C63.6513 55.1142 63.2876 55.6334 62.7425 55.7295C62.1977 55.8254 61.6781 55.4624 61.5816 54.9189L61.1793 52.6504V52.6494C61.1519 52.4979 61.1345 52.3452 61.1264 52.1924C61.1178 52.0285 61.1487 51.8715 61.2116 51.7314C61.1706 51.5839 61.1631 51.4249 61.1959 51.2646C61.2271 51.1129 61.2679 50.9629 61.3183 50.8154C61.3689 50.6673 61.4288 50.5226 61.4974 50.3828C61.57 50.2351 61.6742 50.1134 61.7979 50.0215C61.8335 49.8725 61.9029 49.729 62.0093 49.6045C62.1099 49.487 62.2183 49.3754 62.3333 49.2705L63.9788 47.6777ZM20.8539 47.5303C21.2337 47.1285 21.8685 47.1093 22.2712 47.4883L23.9451 49.0645C24.0602 49.1694 24.1694 49.2818 24.27 49.3994C24.3765 49.524 24.4459 49.6674 24.4815 49.8164C24.6051 49.9084 24.7095 50.0301 24.782 50.1777C24.8505 50.3174 24.9105 50.4614 24.9611 50.6094C25.0115 50.7567 25.0523 50.907 25.0834 51.0586C25.1163 51.2188 25.1078 51.3779 25.0668 51.5254C25.1299 51.6656 25.1616 51.8223 25.1529 51.9863C25.1448 52.1411 25.127 52.2958 25.0991 52.4492L24.6988 54.7363C24.6035 55.2802 24.084 55.6447 23.5388 55.5498C22.9936 55.4547 22.6283 54.9365 22.7235 54.3926L23.1258 52.0986L23.1267 52.0918L23.1512 51.8818C23.1551 51.8074 23.1673 51.735 23.1865 51.666C23.1576 51.6011 23.1347 51.5324 23.1199 51.46C23.1057 51.3909 23.0871 51.3223 23.0641 51.2549C23.041 51.1874 23.0133 51.1216 22.9819 51.0576C22.9485 50.9897 22.9244 50.9192 22.9075 50.8486C22.8492 50.8051 22.7943 50.7549 22.745 50.6973C22.6982 50.6426 22.6472 50.5911 22.5933 50.542C22.5893 50.5384 22.5854 50.5339 22.5815 50.5303L20.895 48.9434C20.4926 48.5645 20.4743 47.932 20.8539 47.5303ZM70.6457 41.2266C71.0429 40.8422 71.6776 40.852 72.063 41.248C72.4484 41.6445 72.4388 42.2776 72.0415 42.6621L68.7086 45.8877C68.3112 46.2722 67.6766 46.2626 67.2912 45.8662C66.9058 45.4698 66.9153 44.8367 67.3127 44.4521L70.6457 41.2266ZM14.1077 41.1816C14.4874 40.78 15.1213 40.7611 15.5241 41.1396L18.8972 44.3145C19.2998 44.6933 19.3188 45.3258 18.9392 45.7275C18.5594 46.1293 17.9246 46.1485 17.5219 45.7695L14.1488 42.5947C13.7463 42.2158 13.728 41.5833 14.1077 41.1816ZM72.5946 31.002L74.887 31.333H74.888C75.067 31.3554 75.2437 31.3901 75.4166 31.4365C75.6015 31.4862 75.7598 31.5856 75.8825 31.7148C76.0615 31.7131 76.2435 31.7586 76.4081 31.8574C76.5624 31.95 76.7109 32.053 76.8516 32.167C76.9911 32.2801 77.1217 32.4028 77.2431 32.5332C77.3729 32.6727 77.4533 32.8399 77.4888 33.0137C77.6405 33.108 77.7692 33.2437 77.8549 33.415C77.9351 33.5754 78.0037 33.7417 78.0604 33.9131C78.1169 34.0837 78.1615 34.258 78.1926 34.4336C78.2257 34.6212 78.2027 34.8054 78.1378 34.9707C78.2124 35.1318 78.2457 35.3147 78.2239 35.5039C78.2034 35.6809 78.1701 35.8567 78.124 36.0303C78.0777 36.2047 78.0193 36.3753 77.9488 36.54C77.8736 36.7158 77.7527 36.8578 77.6072 36.9609C77.5822 37.1369 77.5115 37.3088 77.3899 37.4561C77.2827 37.5858 77.1659 37.708 77.0414 37.8232L75.3755 39.4365C74.9781 39.821 74.3435 39.8115 73.9581 39.415C73.5727 39.0186 73.5823 38.3855 73.9796 38.001L75.6466 36.3887L75.6681 36.3682C75.7312 36.3106 75.7898 36.2493 75.8433 36.1846C75.9003 36.1157 75.9647 36.0564 76.0342 36.0068C76.0464 35.9221 76.0694 35.8373 76.1047 35.7549C76.1375 35.6782 76.1655 35.5994 76.1869 35.5186C76.2083 35.4381 76.2235 35.3562 76.2329 35.2744C76.2431 35.1866 76.2648 35.103 76.2956 35.0244C76.2605 34.9483 76.2335 34.8667 76.2182 34.7803C76.2039 34.6993 76.1837 34.619 76.1576 34.54C76.1312 34.4605 76.0991 34.3825 76.0616 34.3076C76.0214 34.2271 75.9936 34.1437 75.9765 34.0596C75.9037 34.014 75.8351 33.9594 75.7738 33.8936C75.7164 33.8318 75.6535 33.7737 75.5869 33.7197C75.5198 33.6654 75.4486 33.6157 75.3745 33.5713C75.2948 33.5235 75.225 33.4655 75.164 33.4014C75.0755 33.402 74.9855 33.3922 74.8958 33.3682C74.8118 33.3456 74.7256 33.3283 74.6384 33.3174C74.6322 33.3166 74.6259 33.3163 74.6198 33.3154L72.3068 32.9814C71.759 32.9022 71.3798 32.3942 71.4591 31.8477C71.5386 31.3013 72.0468 30.9228 72.5946 31.002ZM13.6848 31.002C14.2325 30.9228 14.7407 31.3013 14.8203 31.8477C14.8996 32.3942 14.5204 32.9022 13.9726 32.9814L11.6596 33.3154C11.6372 33.3187 11.6146 33.3206 11.592 33.3223C11.5027 33.329 11.4144 33.3423 11.3278 33.3613C11.2343 33.3818 11.1408 33.3875 11.0498 33.3818C10.9853 33.4448 10.9126 33.5016 10.8295 33.5469C10.7519 33.5891 10.6771 33.6366 10.6064 33.6895C10.5362 33.7419 10.4706 33.7995 10.4096 33.8604C10.3441 33.9257 10.2711 33.979 10.1943 34.0225C10.1745 34.1075 10.1449 34.1919 10.1013 34.2725C10.0607 34.3475 10.0257 34.4256 9.99653 34.5059C9.96744 34.5858 9.94486 34.6677 9.92801 34.75C9.90993 34.8382 9.87848 34.9203 9.83992 34.9971C9.86997 35.0777 9.8922 35.1632 9.9006 35.2529C9.90844 35.3363 9.92248 35.4197 9.9427 35.502C9.96301 35.5846 9.98886 35.6656 10.021 35.7441C10.0555 35.8284 10.077 35.9148 10.0876 36.001C10.1586 36.0521 10.2247 36.1133 10.2824 36.1846C10.3091 36.2177 10.3372 36.2499 10.3665 36.2812L10.4644 36.3789L12.151 37.9658C12.5537 38.3448 12.5729 38.9781 12.1931 39.3799C11.8132 39.7816 11.1784 39.7998 10.7757 39.4209L9.08914 37.834V37.833C8.95723 37.7103 8.83442 37.5793 8.72208 37.4404C8.59961 37.289 8.5304 37.1125 8.50869 36.9326C8.36085 36.8267 8.239 36.6805 8.16512 36.5C8.09596 36.331 8.03868 36.1561 7.9948 35.9775C7.95113 35.7997 7.92169 35.6193 7.90474 35.4385C7.88663 35.2447 7.92585 35.0594 8.00752 34.8975C7.94417 34.728 7.92456 34.5399 7.96347 34.3496C7.99991 34.1716 8.04964 33.9954 8.11226 33.8232C8.17517 33.6504 8.25044 33.4829 8.33739 33.3223C8.43043 33.1504 8.56722 33.0172 8.72599 32.9277C8.76677 32.7514 8.8546 32.5837 8.99224 32.4463C9.12068 32.3181 9.25866 32.1984 9.40531 32.0889C9.55317 31.9784 9.70828 31.8787 9.86928 31.791C10.0409 31.6976 10.2279 31.6608 10.4096 31.6719C10.5395 31.5442 10.7058 31.4502 10.8971 31.4082C11.0562 31.3733 11.2182 31.3488 11.3816 31.334L13.6848 31.002ZM22.9349 29.665C23.4827 29.5859 23.991 29.9651 24.0703 30.5117C24.1496 31.0581 23.7702 31.5652 23.2227 31.6445L18.5976 32.3125C18.0499 32.3916 17.5407 32.0132 17.4612 31.4668C17.3819 30.9202 17.762 30.4122 18.3099 30.333L22.9349 29.665ZM63.3445 29.665L67.9695 30.333C68.5174 30.4122 68.8975 30.9202 68.8182 31.4668C68.7387 32.0132 68.2295 32.3916 67.6817 32.3125L63.0567 31.6445C62.5092 31.5652 62.1298 31.0581 62.209 30.5117C62.2884 29.9652 62.7966 29.5859 63.3445 29.665ZM32.3308 25.5957C32.5811 25.1032 33.184 24.9057 33.6777 25.1553C34.1715 25.4049 34.3684 26.0074 34.1182 26.5L33.0708 28.5625L33.0698 28.5615C33.008 28.6932 32.9401 28.8217 32.8633 28.9443C32.7743 29.0862 32.6551 29.1974 32.5197 29.2764C32.4678 29.4239 32.381 29.5617 32.2584 29.6758C32.1428 29.7832 32.0196 29.8833 31.8903 29.9756C31.7601 30.0685 31.6244 30.1526 31.4841 30.2275C31.3355 30.3069 31.1757 30.3447 31.0182 30.3457C30.9 30.4488 30.7566 30.5264 30.5934 30.5654C30.4506 30.5995 30.3054 30.6234 30.1588 30.6406L30.1597 30.6426L27.8467 30.9766C27.2991 31.0554 26.7906 30.6763 26.7113 30.1299C26.6319 29.5833 27.0121 29.0762 27.5599 28.9971L29.872 28.6631L29.9082 28.6582C29.982 28.6502 30.0549 28.6372 30.1265 28.6201C30.2015 28.6022 30.2766 28.5945 30.3506 28.5938C30.4067 28.5449 30.4691 28.5014 30.5376 28.4648C30.6021 28.4304 30.665 28.3921 30.7245 28.3496C30.7834 28.3076 30.8387 28.2614 30.8909 28.2129C30.946 28.1617 31.0057 28.1176 31.0681 28.0811C31.0921 28.0133 31.1243 27.9472 31.164 27.8838C31.2015 27.8239 31.2346 27.7615 31.2639 27.6973L31.2825 27.6582L32.3308 25.5957ZM52.6017 25.1553C53.0955 24.9057 53.6993 25.103 53.9495 25.5957L54.9969 27.6582L55.0155 27.6973C55.0448 27.7615 55.0779 27.8239 55.1154 27.8838C55.155 27.9471 55.1863 28.0135 55.2103 28.0811C55.2729 28.1176 55.3331 28.1615 55.3884 28.2129C55.4407 28.2614 55.4959 28.3076 55.5549 28.3496C55.6143 28.3921 55.6773 28.4304 55.7418 28.4648C55.81 28.5013 55.8718 28.545 55.9278 28.5938C56.0021 28.5944 56.0776 28.6021 56.1529 28.6201C56.2244 28.6372 56.2974 28.6502 56.3712 28.6582C56.3832 28.6595 56.3955 28.6614 56.4074 28.6631L58.7195 28.9971C59.2673 29.0762 59.6474 29.5833 59.5681 30.1299C59.4888 30.6763 58.9803 31.0555 58.4327 30.9766L56.1196 30.6426V30.6406C55.9734 30.6234 55.8284 30.5995 55.686 30.5654C55.5226 30.5263 55.3785 30.449 55.2602 30.3457C55.103 30.3445 54.9435 30.3067 54.7953 30.2275C54.655 30.1526 54.5192 30.0685 54.389 29.9756C54.2597 29.8833 54.1365 29.7832 54.021 29.6758C53.8984 29.5617 53.8116 29.4239 53.7597 29.2764C53.6242 29.1974 53.505 29.0862 53.4161 28.9443C53.3392 28.8216 53.2704 28.6933 53.2086 28.5615V28.5625L52.1612 26.5C51.911 26.0074 52.1079 25.4049 52.6017 25.1553ZM36.5203 17.3447C36.7705 16.8524 37.3735 16.6559 37.8671 16.9053C38.3609 17.1549 38.5588 17.7564 38.3086 18.249L36.2139 22.374C35.9637 22.8667 35.3598 23.0641 34.866 22.8145C34.3725 22.5647 34.1755 21.9632 34.4255 21.4707L36.5203 17.3447ZM48.4122 16.9053C48.9059 16.6559 49.5089 16.8524 49.7591 17.3447L51.8538 21.4707C52.1039 21.9632 51.9069 22.5648 51.4134 22.8145C50.9196 23.0641 50.3157 22.8667 50.0655 22.374L47.9708 18.249C47.7206 17.7564 47.9185 17.1549 48.4122 16.9053ZM43.1402 9C43.3216 9.00002 43.5022 9.01228 43.6805 9.03711C43.8716 9.06372 44.0413 9.14437 44.1797 9.25879C44.3582 9.23418 44.5452 9.25579 44.722 9.33398C44.8874 9.40719 45.0481 9.49257 45.2026 9.58887C45.356 9.68448 45.5028 9.7901 45.6401 9.90527C45.787 10.0285 45.8881 10.1853 45.9446 10.3545C46.108 10.4293 46.2537 10.5486 46.3606 10.709C46.4523 10.8465 46.5331 10.9913 46.6063 11.1406C46.6093 11.1463 46.6131 11.1515 46.6161 11.1572L47.6644 13.2197C47.9145 13.7123 47.7166 14.3138 47.2229 14.5635C46.7292 14.8131 46.1263 14.6165 45.876 14.124L44.8277 12.0615C44.8237 12.0536 44.8207 12.0451 44.8169 12.0371L44.7582 11.9248C44.7373 11.8879 44.7152 11.8517 44.6916 11.8164C44.641 11.7404 44.6027 11.6598 44.5752 11.5771C44.4962 11.5407 44.4198 11.4951 44.35 11.4365C44.2847 11.3817 44.2151 11.331 44.1415 11.2852C44.0673 11.2389 43.9895 11.1975 43.9095 11.1621C43.8234 11.124 43.7457 11.0747 43.6766 11.0176C43.588 11.0295 43.4964 11.0315 43.4035 11.0186C43.3166 11.0065 43.2287 11 43.1402 11C43.0515 11 42.9629 11.0064 42.8759 11.0186C42.7826 11.0315 42.6907 11.0297 42.6018 11.0176C42.5328 11.0745 42.4557 11.1241 42.3698 11.1621C42.29 11.1975 42.213 11.2389 42.1388 11.2852C42.0651 11.3311 41.9948 11.3816 41.9293 11.4365C41.8593 11.4952 41.7825 11.5406 41.7032 11.5771C41.6758 11.6596 41.6392 11.7406 41.5887 11.8164C41.5418 11.8868 41.4997 11.9607 41.4634 12.0371C41.4596 12.0451 41.4557 12.0536 41.4517 12.0615L40.4033 14.124C40.153 14.6165 39.5502 14.8131 39.0564 14.5635C38.5629 14.3138 38.3658 13.7123 38.616 13.2197L39.6633 11.1572C39.7385 11.0017 39.8236 10.8518 39.9188 10.709C40.0255 10.5489 40.1707 10.4293 40.3338 10.3545C40.3902 10.1852 40.4923 10.0285 40.6392 9.90527C40.7766 9.7901 40.9233 9.68448 41.0768 9.58887C41.2313 9.49256 41.392 9.4072 41.5574 9.33398C41.7339 9.25593 41.9205 9.23441 42.0987 9.25879C42.2372 9.14409 42.4075 9.06376 42.5989 9.03711C42.7774 9.01226 42.9586 9 43.1402 9Z" fill="#8FCBFF"/>
</svg>
